<svg width="18" height="18" viewBox="0 0 18 18" fill="none" xmlns="http://www.w3.org/2000/svg">
<path d="M14.2835 15.3037L9.69237 10.7126C9.328 11.0041 8.90897 11.2349 8.43528 11.4049C7.96159 11.575 7.45754 11.66 6.92312 11.66C5.59923 11.66 4.47877 11.2015 3.56176 10.2845C2.64475 9.36747 2.18625 8.24702 2.18625 6.92312C2.18625 5.59923 2.64475 4.47877 3.56176 3.56176C4.47877 2.64475 5.59923 2.18625 6.92312 2.18625C8.24702 2.18625 9.36747 2.64475 10.2845 3.56176C11.2015 4.47877 11.66 5.59923 11.66 6.92312C11.66 7.45754 11.575 7.96159 11.4049 8.43528C11.2349 8.90897 11.0041 9.328 10.7126 9.69237L15.3037 14.2835L14.2835 15.3037ZM6.92312 10.2025C7.83406 10.2025 8.60836 9.88367 9.24601 9.24601C9.88367 8.60836 10.2025 7.83406 10.2025 6.92312C10.2025 6.01219 9.88367 5.23789 9.24601 4.60023C8.60836 3.96258 7.83406 3.64375 6.92312 3.64375C6.01219 3.64375 5.23789 3.96258 4.60023 4.60023C3.96258 5.23789 3.64375 6.01219 3.64375 6.92312C3.64375 7.83406 3.96258 8.60836 4.60023 9.24601C5.23789 9.88367 6.01219 10.2025 6.92312 10.2025Z" fill="white"/>
</svg>
